<?xml version="1.0" encoding="UTF-8"?>
<svg version="1.1" xmlns="http://www.w3.org/2000/svg" width="768" height="768">
<path d="M0 0 C-4.83771587 5.82627976 -10.04220061 11.17782272 -15.40611267 16.51963806 C-16.35522163 17.46846658 -17.30410831 18.4175175 -18.25279337 19.36676985 C-20.84584766 21.9601182 -23.44199339 24.55035196 -26.03866804 27.14007461 C-28.84423915 29.93924826 -31.64688576 32.74134734 -34.44987488 35.54310608 C-39.3035102 40.39385963 -44.1589165 45.24283455 -49.01548576 50.09065056 C-56.04532702 57.10791518 -63.07190827 64.128437 -70.09761221 71.14984364 C-81.5082253 82.55339464 -92.92070427 93.95507621 -104.3347168 105.35522461 C-105.35863512 106.37790121 -105.35863512 106.37790121 -106.40323866 107.42123795 C-111.94101687 112.95227239 -117.47888555 118.48321623 -123.01675892 124.01415539 C-127.85618541 128.84752954 -132.69557606 133.68093958 -137.53491211 138.5144043 C-138.21638693 139.19505099 -138.89786175 139.87569768 -139.59998732 140.57697003 C-150.97104638 151.93433335 -162.34013449 163.29366766 -173.70782286 174.6544047 C-180.71415035 181.65625694 -187.72224881 188.6563276 -194.73265708 195.65409411 C-199.53729391 200.4502915 -204.3401499 205.24826728 -209.14162152 210.04763334 C-211.90978403 212.81445385 -214.67876313 215.58044404 -217.44996643 218.34421921 C-219.99042383 220.87789287 -222.52852656 223.41390146 -225.0648374 225.95172579 C-226.40973577 227.29622725 -227.75710738 228.63825335 -229.10458702 229.98016781 C-229.91600515 230.79296028 -230.72742328 231.60575276 -231.56342983 232.44317532 C-232.25620476 233.13502845 -232.94897969 233.82688159 -233.6627478 234.53969997 C-236.88182172 237.92824642 -239.92226162 241.4825847 -243 245 C-248.94 250.94 -254.88 256.88 -261 263 C-174.87 263.33 -88.74 263.66 0 264 C0 343.2 0 422.4 0 504 C-43.89 504 -87.78 504 -133 504 C-133 460.44 -133 416.88 -133 372 C-220.12 372 -307.24 372 -397 372 C-397 253.01224843 -397 253.01224843 -367.29516411 217.21835613 C-365.00225199 214.94949019 -362.70150745 212.74189059 -360.33859253 210.5521698 C-359.03587601 209.28561627 -357.73723227 208.01486323 -356.44221485 206.74043864 C-353.74467159 204.09149088 -351.031258 201.46057498 -348.30547857 198.84070945 C-344.08014985 194.75602016 -339.97676212 190.56105658 -335.8938942 186.33451271 C-335.20266306 185.6193611 -334.51143193 184.90420949 -333.7992544 184.16738662 C-332.39238358 182.71132565 -330.98566128 181.25512115 -329.57908536 179.79877529 C-316.54817454 166.3336472 -303.20247397 153.22361698 -289.71820177 140.21473447 C-278.33094649 129.21143209 -267.30863421 117.92541027 -256.47460938 106.37817383 C-189.57513895 35.17365594 -136.87951121 -17.4881324 0 0 Z " fill="#000000" transform="translate(422,119)"/>
<path d="M0 0 C87.45 0 174.9 0 265 0 C275.4844403 74.67162442 275.4844403 74.67162442 273.69921875 95.19140625 C273.637017 95.95077461 273.57481525 96.71014296 273.5107286 97.49252248 C269.42205178 144.11386419 232.88027555 170.22176748 199.5 198.75 C187.1926977 209.26899545 174.9797495 219.86509997 163.16796875 230.94140625 C162.10319022 231.93952017 162.10319022 231.93952017 161.01690102 232.957798 C136.76649722 255.88622148 125.98209652 276.5428221 124.82504272 310.04196167 C124.62987458 318.95506213 125.10992747 327.8052312 125.8125 336.6875 C125.86807446 337.40799719 125.92364891 338.12849438 125.98090744 338.87082481 C127.41736403 357.12486553 130.03066935 375.11567226 134 393 C134.99448182 392.0027528 134.99448182 392.0027528 136.00905418 390.98535919 C152.11850624 374.83156822 168.23367712 358.68350001 184.3549099 342.54146576 C192.15078318 334.73526646 199.94476664 326.92719742 207.734375 319.11474609 C214.52137698 312.30785072 221.31185114 305.50444207 228.10657179 298.70525122 C231.70638568 295.10282306 235.30439989 291.49863684 238.89826584 287.89027405 C242.27721705 284.49780286 245.6607718 281.10999419 249.04799843 277.72578621 C250.29381047 276.47942149 251.53789453 275.23132691 252.7801609 273.98142815 C254.46960759 272.28210756 256.16502232 270.58898102 257.8621521 268.89733887 C258.60631207 268.14444037 258.60631207 268.14444037 259.36550558 267.37633181 C262.77175758 264 262.77175758 264 265 264 C265 307.89 265 351.78 265 397 C177.55 397 90.1 397 0 397 C-10.48432299 321.68894708 -10.48432299 321.68894708 -8.69921875 301.03125 C-8.60591612 299.88442592 -8.60591612 299.88442592 -8.5107286 298.71443367 C-4.43579799 251.93451434 31.98741114 225.81000584 65.5 197.1875 C77.80598167 186.67637931 90.01877697 176.0891986 101.83203125 165.0234375 C102.89680978 164.02646103 102.89680978 164.02646103 103.98309898 163.00934362 C128.24416787 140.09777005 139.01816819 119.45567501 140.17495728 85.9611969 C140.37012941 77.04705101 139.89009075 68.19581719 139.1875 59.3125 C139.13192554 58.59196174 139.07635109 57.87142348 139.01909256 57.12905073 C137.58269038 38.87505012 134.96932036 20.88428138 131 3 C130.33093659 3.6699852 129.66187319 4.3399704 128.97253513 5.03025818 C112.71864599 21.30631275 96.4619 37.57950951 80.2021265 53.84968567 C72.33920426 61.71777182 64.4772248 69.58679578 56.61743164 77.45800781 C49.7696091 84.3157743 42.92005105 91.17180168 36.06837267 98.02571583 C32.43802639 101.6573697 28.80857595 105.2899091 25.18120003 108.92453003 C21.77137809 112.34110762 18.35925172 115.75536617 14.94529533 119.16781235 C13.6886548 120.42472942 12.43287967 121.68251235 11.17800903 122.94119644 C9.47280616 124.65132946 7.76459891 126.3584019 6.05555725 128.06469727 C5.55264681 128.57052054 5.04973638 129.07634382 4.53158623 129.59749508 C1.11412121 133 1.11412121 133 0 133 C0 89.11 0 45.22 0 0 Z " fill="#000000" transform="translate(478,119)"/>
</svg>
